/* XPM */
static char *sprite_xpm[] = {
/* columns rows colors chars-per-pixel */
"64 64 26 2 ",
"AA c #383838",
"AB c #545454",
"AC c #8C8C8C",
"AD c #989898",
"AE c #A8A8A8",
"AF c #B4B4B4",
"AG c #C0C0C0",
"AH c #D0D0D0",
"AI c #DCDCDC",
"AJ c #7C7C7C",
"AK c #707070",
"AL c #646464",
"AM c #484848",
"AN c #ECECEC",
"AO c #045800",
"AP c #046400",
"AQ c #047000",
"AR c #FCFCFC",
"AS c #7C0000",
"AT c #980000",
"AU c #A40000",
"AV c #2C2C2C",
"AW c #5C5C5C",
"AX c #202020",
"AY c #1C1C1C",
"AZ c #000000",
/* pixels */
"AAAAAAAAAAAAAAAAAAAAAAAAAAAAAAAAAAAAAAAAAAAAAAAAAAAAAAAAAAAAAAAAAAAAAAAAAAAAAAAAAAAAAAAAAAAAAAAAAAAAAAAAAAAAAAAAAAAAAAAAAAAAAAAA",
"ABACACADADADAEAEAFAFAFAGAHAHAHAIAIAIAIAIAIAIAHAHAHAHAGAGAFAFAEAEADADADADADACACACACACAJAJAJAJAKAKAKAKALALAKAKAKAJAJAJAJACACACACAA",
"ALACACACADADADAEAFAFAFAGAGAGAGAHAIAIAIAIAIAIAHAHAHAHAGAGAFAFAEAEAEADADADADACACACACACAJAJAJAJAKAKAKAKALALAKAKAKAKAJAJAJAJACACACAA",
"ALACALADACACADAEAEAEAEALADAGAGAHAIAIAIAIAIALADAIAIAHAGAGAGAGAFALADAEADADADACACACACALADAJAJAJAJAKAKAKAKABADALALAKAJAJAJAJALADACAA",
"ALACAMALACACADAEAEAEAEAMALAGAGAHAHAHAIAIAIAMALAIAIAHAHAHAGAGAFAMALAEAEADADADACACACAMALACACAJAJAKAKAKAKAMABALALAKAJAJAJAJAMALACAA",
"AKAJACACACACADADAEAEAEAFAGAGAGAGAHAHAIAIAIAIAIAIAIAHAHAHAGAGAFAFAEAEAEADADADACACACACACACACAJAJAJAKAKAKALALALALAKAKAKAKAJAJAJACAA",
"AKAJACACACACACADADADADAEAFAFAFAGAHAHAHAHAIAIAIAIAIAIAHAHAGAGAGAGAFAEAEADADADACACACACACACACACAJAJAJAJAKAKAKALALALAKAKAKAKAJAJAJAA",
"AKAJACACACACACADADADADAEAFAFAFAGAHAHAHAHAIAIAIAIAIAIAIAIAHAHAGAGAFAFAFAEAEADADADADACACACACACAJAJAJAJAKAKAKALALALAKAKAKAKAJAJAJAA",
"AKAJAJACACACACADADADADAEAFAFAFAFAGAGAHAHAIAIAIAIAIAIAIAIAHAHAGAGAFAFAFAEAEADADADADACACACACACAJAJAJAJAKAKAKALALALALALALAKAJAJAJAA",
"AKAKAJACACACACACADADADADAEAEAEAFAGAGABABABABABABABABABABABABAMAMAMAMAMAMAMAMAMAMAMAMAMAMAMAMAMAJAJAJAJAKAKAKAKALALALALAKAKAKAJAA",
"AKAKAJAJAJAJACACADADADADAEAEAEAEAFAGANAMAMAMAMAMAMAMAMAMAMAMAAAAAAAAAAAAAAAAAAAAAAAAAAAAAAAAAIACAJAJAJAJAKAKAKALALALALAKAKAKAJAA",
"AKAKAJAJAJAJACACADADADADADAEAEAEAFAFAHANAGAGAGAGAFAFAEAEADADADADADACACACAJAJAJAJAJAJAJAKAKAIAGACACACAJAJAJAKAKAKAKALALALAKAKAJAA",
"AKAKALADAJAJAJACACACACADAOADADAEAFAFAGAHANAHAHAGAFAFAFAFAEAEADADADACACACACACACAJAJAJAJAJAIAGACACACACAJALADAKAKAKAKALALALABADAKAA",
"AKALAMALAJAJAJACACACACAOAPAOADAEAEAEAFAFAHANAHAHAGAGAFAFAEAEADADADADADACACACACACAJAJAJAIAGACACACACACAJAMALAJAJAKAKAKALALAMABAKAM",
"AKALAKAJAJAJAJACACACAOAPAQAPAOAEAEAEAFAFAGAIANAHAGAGAFAFAEAEADADADADADACACACACACAJAJAIAGADADACACACACACAJAJAJAJAKAKAKALALALALAKAM",
"AKALAKAKAKAKAJAJACAOAPAQAQAQAPAOAEAEAFAFAFAGAIANAGAGAGAGAFAFAEADADADADACACACACACAJAIAGADADADACACACACACAJAJAJAJAKAKAKALALALALAKAM",
"AKALALAKAKAKAJAJAOAPAQAQAQAQAQAPAOADAEAEAFAGAGAIANAHAGAGAFAFAEAEAEADADADACACACACAIAGADADADADADADACACACAJAJAJAJAJAJAKAKAKAKALALAM",
"AKALALAKAKAKAJAOAPAQAQAQAQAQAQAQAPAOAEAEAFAGAGAHAIANAGAGAFAFAEAEAEADADADACACACAIAGAEAEAEAEADADADACACACACACAJAJAJAJAKAKAKAKALALAM",
"AKALALAKAKAKAKAJAJAJACACACACACADADADAEAEAEAFAFAGAGAIANAGAGAGAFAEAEADADADACACAIAHAFAEAEAEAEADADADACACACACACAJAJAJAJAKAKAKAKALALAM",
"AKALALALALALAKAKAJAJAJACACACACACADADADADAEAFAFAGAGAGAIANAGAGAFAFAFAEAEADADARANAGAGAFAEAEAEADADADADADACACABAAAJAJAJAJAKAKAKAKALAM",
"AKALALALALALAKASATAUAUAUAUAUAUAUATASADADAEAFAFAGAGAGAGAIANAGAFAFAFAEAEADARANAGAGAGAFAFAFAFAEADADADADACABAAAEACAJAJAJAJAJAJAKALAM",
"AKAKABADALALALAKASATAUAUAUAUAUATASACADADADAEAEAFAFAGAGAHAIANAGAFAFAEAEARANAHAGAGAGAFAFAFAFAEADADADADABAAACAEACAJAJAJAJAJALADALAM",
"AKAKAMABALALALAKAKASATAUAUAUATASACACADADADAEAEAFAFAGAGAGAHAIANAFAFAFARANAIAHAHAHAHAGAFAFAFAEADADADABAAAKACAEACACACAJAJAJAMALAKAM",
"AKAKAKAKALALALALAKAKASATAUATASACACACACACADADADAEAEAFAFAGAHAHAIARAGARANAIAIAIAHAHAHAGAGAGAGAFAEAEABAAAJAKACAEACACACAJAJAJAJAJAKAM",
"AKAKAKAKALALALALAKAKAKASATASAJACACACACACADADADAEAEAFAFAGAHAHAHANARANAIAIAIAIAHAHAHAHAGAGAGAFAEABAAAJAJAKACAEACACACACAJAJAJAJAKAM",
"AKAJAKAKAKALALALALALAKAKASAJAJAJACACACACADADADAEAEAFALADAGAGAGAHANAIAIAIAIALADAHAHAHAGAGAGAFABAAAJAJAJAJACAEACACACACAJAJAJAJAKAM",
"AKAJAKAKAKALALALALALAKAKAKAJAJAJACACACACACADADADADAEAMALAGAGAGAHAHAHAHAIAIAMALAIAIAHAHAHAHABAAACACAJAJAJACAFADACACACAJAJAJAJAJAM",
"ALAJAKAKAKAVAAAAAAAAAAAAAWAKAJAJACACACACACADADADADAEAEAFAGAGAGAHAHAHAHAIAIAIAIAIAIAIAHAHABAAACACACAJAJAJACAFADACACACACACACAJAJAM",
"ALAJAJAJAKAXAVAVAVAVAVAAABAKAKAJAJAJACACACADADADADAEAEAEAFAFAFAGAHAHAHAHAIAIAIAIAIAIAHABAAADACACACAJAJAJACAFADACACACACACACAJAJAM",
"ALAJAJAJAKAXAVAVAVAVAVAAABAKAKAVAVAVAJAJACACACADADADADAEAFAFAFAGAGAGAGAHAIAIAIAIAIAIABAAADADACACACACACAJACAFADADADACACACACACAJAM",
"ALAJAJAJAKAXAVAKAKAKAVAAABAKAKAVAYAVAJAJACACACADADADADAEAFAFAFAGAGAGAGAHAIAIAIAIAIABAAADADADACACACACACAJACAFADADADACACACACACAJAM",
"ALACALADAJAXAVABABABAVAAAMAKAKAVAZAVAJAJACACACADADADADADAEAEAEAFAGAGAGAHAHAIAIAIABAAAEADADADADADACACACAJACAFADADADACACACALADAJAM",
"ALACAMALAJAXAVABABABAVAAAMALAKAVAZAVAJAJAJACACACACADADADAEAEAEAFAGAGAGAGAHAIAIAIARAFAFAEADADADADACACACACADAFAEADADADACACAMALACAM",
"ALACACACAJAXAVAAAAAAAVAAAMALAKAVAYAVAJAJAJACACACACADADADAEAEAEAFAGAGAGAGAHAIAIAIANARAFAEADADADADACACACACADAFAEADADADACACACACACAM",
"ALACACACAJAXAVAVAVAVAVAAAMALALAVAVAVAJAJAJACACACACADADADADADADAEAFAFAFAGAHAHAHAHAIANARAEADADADADADACACACADAFAEADADADACACACACACAM",
"ALACACACAJAXAVAVAVAVAVAAAMALALALAKAKAKAKAJAJAJACACACACADADADADAEAFAFAFAFAGAHAHAHAIAIANARAEAEADADADADADACADAFAEAEAEADADADADACACAM",
"ALACACACACAXAXAXAXAXAXAVAMALALALALALAKAKAJAJAJACACACALAEADADADADAEAEAEAFAGALADAGAHAIAIANARAEAEAEADADADACADAGAFAEAEADADADADACACAM",
"ALACACACACAKAWAWAWAWABABABAKALALALALAKAKAJAJAJACACACAMALADADADADAEAEAEAFAGAMALAGAHAIAIAIANARAEAEADADADACADAGAFAFAFAEADADADADACAM",
"ALADACACACACAJAJAJAJAJAKAKAKALALALALAKAKAKAJAJAJAJACACACADADADADAEAEAEAEAFAGAGAGAHAHAHAIAIANARAEADADADADAEAGAFAFAFAEADADADADACAM",
"ALADACACACACACAJAJAJAJAKAKAKAKALALALALALAKAKAKAJAJACACACACACACADABABADAEAFAGAGAGAGAHAHAIAIAIANARAEADADADAEAGAGAFAFAEADADADADADAM",
"ALADACACACACACAJAJAJAJAJAKAKAKALALALALALAKAKAKAJAJACACACACACACABAAAAABAEAFAGAGAGAGAHAHAIAIAIAIANARADADADAEAGAGAGAGAFAEAEAEADADAM",
"ALADALADACACACAJAJAJAJAJAKAKAKALALALALALALAKAKAJAJAJAJACACACABAAAGAHAAABAEAFAFAFAGAHAHAHAHAIAIAIANARADADAEAGAGAGAGAFAEAEALACADAM",
"ALADAMALACACACACACAJAJAJAKAKAKAKALALALALALAKAKAKAKAJAJACACABAAAGAGAHAIAAABAFAFAFAGAGAGAHAHAIAIAIAIANARADAEAGAHAGAGAFAEAEAMALADAM",
"ABADADADACACACACACAJAJAJAJAJAKAKALALALALALAKAKAKAKAJAJACABAAAGAGAGAHAHAIAAABAFAFAGAGAGAHAHAIAIAIAIAIANARAEAGAHAGAGAGAFAFAFAEADAM",
"ABADADADADACACACACACACAJAJAJAJAKAKAKAKALALALALAKAKAKAKABAAAFAGAGAGAGAHAIAIAAABAEAFAGAGAHAHAHAHAIAIAIAIANARAGAHAGAGAGAFAFAFAEADAM",
"ABAEADADADADADACACACACAJAJAJAJAJAKAKAKAKALALALAKAKAKABAAAEAFAGAGAGAGAHAIAIAIAAABAFAFAFAGAGAHAHAIAIAIAIAIANARAHAHAHAGAFAFAFAEAEAM",
"ABAEAEAEADADADACACACACACAJAJAJAJAKAKAKAKALALALAKAKABAAADADAEAFAFAFAGAHAHAHAHAIAAABAFAFAGAGAHAHAIAIAIAIAIAIAIAIAHAHAHAGAGAGAFAEAM",
"ABAEAEAEADADADACACACACACAJAJAJAJAKAKAKAKALALALALABAAADADADAEAFAFAFAFAGAHAHAHAIAIAAABAFAGAGAGAGAHAIAIAIAIAIAIAIAHAHAHAGAGAGAFAEAM",
"ABAFAEAEADADADADADACACACAJAJAJAJAJAJAJAKAKALALABAAACADADADADAEAEAEAFAGAGAGAGAHAIAIAAABAFAFAGAGAHAHAHAHAIAIAIAIAIAIAHAGAGAGAFAFAM",
"ABAFAFAFAEADADADADACACACACACACAJAJAJAJAJAKALABAAACACADADADADAEAEAEAFAGAGAGAGAHAIAIAIAAABAFAGAGAGAHAHAHAIAIAIAIAIAIAHAHAHAHAGAFAM",
"ABAFALADAEADADADADACACALADACACAJAJAJAJAJAKABAAACACACADADADADAEAEAEAEAFAGAGAGAHAHAHAIAIAAABAGAGAGAHAHAHALADAIAIAIAIAIAHAHALADAGAM",
"ABAGAMALAEADADADADADADAMALACACACAJAJAJAJABAAAJACACACACACACADADADADAEAFAGAGAGAGAHAHAIAIAIAAABAFAGAHAHAHAMALAIAIAIAIAIAHAHAMALAGAM",
"ABAGAFAFAFAEAEADADADADACACACACACAJAJAJABAAAJAJACACACACACACADADADADAEAFAGAGAGAGAHAHAIAIAIAIAAABAFAGAGAGAHAIAIAIAIAIAIAIAIAIAHAGAM",
"ABAGAFAFAFAEAEADADADADACACACACACAJAJAJAAADADADADADADADADADADADACACACACACACACACACACACACACACACAAAFAGAGAGAHAIAIAIAIAIAIAIAIAIAHAGAM",
"ABAHAGAGAFAEAEAEAEADADADACACACACACACACAFAFAFAFAFAFAFAFAFAFAFAEAEAEAEAEAEAEAEAEAEAEAEAEAEAEAEAEAFAGAGAGAHAHAIAIAIAIAIAIAIAIAHAGAM",
"ABAHAGAGAGAFAFAEAEADADADACACACACACACACACAJAJAJAJAKAKAKALALALALAKAKAKAKAJAJACACACACADADADADAEAEAEAFAFAFAGAHAIAIAIAIAIAIAIAIAIAHAM",
"ABAHAGAGAGAFAFAEAEADADADACACACACACACACACAJAJAJAJAKAKAKALALALALAKAKAKAKAJAJACACACACADADADADAEAEAEAFAFAFAGAHAIAIAIAIAIAIAIAIAIAHAM",
"ABAHAHAHAGAFAFAEAEAEAEADADADADACACACACACAJAJAJAJAKAKAKALALALALALAKAKAKAKAJACACACACACACADADADADAEAFAFAFAGAGAHAHAHAIAIAIAIAIAIAHAM",
"ABAIAHAHAHAGAGAFAFAEAEADADADADACACACACACACAJAJAJAJAKAKAKAKALALALAKAKAKAKAJAJAJAJACACACADADADADAEAEAEAEAFAGAHAHAHAHAIAIAIAIAIAIAM",
"ABAIALADAHAGAGAFAFAFAFALACADADADACACACACACALADAJAJAKAKAKAKALALABADALALAKAKAJAJAJAJALADACACADADADAEAEAEALADAGAGAGAHAIAIAIALADAIAM",
"ABAIAMALAHAGAGAFAFAFAFAMALADADADADADACACACAMALAJAJAKAKAKAKALALAMABALALAKAKAJAJAJAJAMALACACADADADADAEAEAMALAGAGAGAHAIAIAIAMALAIAM",
"ABAIAIAIAHAHAHAGAGAFAFAEADADADADADADADACACACACACAJAJAJAKAKAKAKALALALALALAKAJAJAJAJACACACACADADADADADADAEAFAGAGAGAHAHAHAHAIAIAIAM",
"ABAIAIAIAIAHAHAGAGAGAGAFAEAEAEADADADADACACACACACAJAJAJAJAJAKAKAKALALALALAKAKAKAKAJAJAJACACACACADADADADAEAFAFAFAFAGAHAHAIAIAIAIAM",
"AAAAAAAAAAAAAAAAAAAAAAAAAAAAAAAAAAAAAAAAAAAAAAAAAAAAAAAAAAAAAAAAAAAAAAAAAAAAAAAAAAAAAAAAAAAAAAAAAAAAAAAAAAAAAAAAAAAAAAAAAAAAAAAA",
};
