/* XPM */
static char *sprite_xpm[] = {
/* columns rows colors chars-per-pixel */
"64 64 23 2 ",
"AA c #202020",
"AB c #000000",
"AC c #383838",
"AD c #2C2C2C",
"AE c #282828",
"AF c #484848",
"AG c #403018",
"AH c #382C14",
"AI c #646464",
"AJ c #8C8C8C",
"AK c #483818",
"AL c #28200C",
"AM c #302410",
"AN c #1C1C1C",
"AO c #404040",
"AP c #5C4020",
"AQ c #6C4824",
"AR c #543C1C",
"AS c #A86840",
"AT c #4C4C4C",
"AU c #303030",
"AV c #5C5C5C",
"AW c #343434",
/* pixels */
"AAAAAAAAAAAAAAAAAAAAAAAAAAAAAAAAAAAAAAAAAAAAAAAAAAAAAAAAAAABABABABABABAAAAAAAAAAAAAAAAAAAAAAAAAAAAAAAAAAAAAAAAAAAAAAAAAAAAAAAAAA",
"AAACACACACACACACACACACACACACACACACACACACACACACACACACACACACABABABABABABACACACACACACACACACACACACACACACACACACACACACACACACACACACACAA",
"AAADAEAFAGADADAEAEAHADAHAHAHAGAEAEAHADADADAGAHADAHAHAHAHAHABABABABABABADAEAFAGADADAEAEAHADAHAHAHAGAEAEAHADADADAGAHADAHAHAHAHAHAA",
"AAADADAIAJADADAFAEADAGAGAHAEAIAJAEAEACACAGAGAHAGAHAIAJAEAHABABABABABABADADAIAJADADAFAEADAGAGAHAEAIAJAEAEACACAGAGAHAGAHAIAJAEAHAA",
"AAAHAHAFAIAHADAGAKAGAGAGAEAHAFAIADAHADAGAGAHAGAGAHAFAIAHAHABABABABABABAHAHAFAIAHADAGAKAGAGAGAEAHAFAIADAHADAGAGAHAGAGAHAFAIAHAHAA",
"AAAEAEAHAHAHADADAKAGAHAGAGADACAGAGAHAGAGAGACADAGADADADADADABABABABABABAEAEAHAHAHADADAKAGAHAGAGADACAGAGAHAGAGAGACADAGADADADADADAA",
"AAAHAHAHAHAHABABABABABABABABABABABABABABABABABALADADAHAEAHABABABABABABAHAHAHAHAHABABABABABABABABABABABABABABABABABALADADAHAEAHAA",
"AAADADADADADABAMALALALANAMAHAMAMAMANAMAMALAMANAOAHAEAEAHAHABABABABABABADADADADADABAMALALALANAMAHAMAMAMANAMAMALAMANAOAHAEAEAHAHAA",
"AAAEAEACAGADABANAKAPAQAPARAGALASAKAPARAQARAGALATACAHAEAEAHABABABABABABAEAEACAGADABANAKAPAQAPARAGALASAKAPARAQARAGALATACAHAEAEAHAA",
"AAAEAEAHAEAEABANARAPAQAKAPAGALASARAPARAPAKAGALATADAGACAEAEABABABABABABAEAEAHAEAEABANARAPAQAKAPAGALASARAPARAPAKAGALATADAGACAEAEAA",
"AAAHAHAEAHADABALAKAPAQARAQAGALASAKAPARAPARAGALAOAEAEAHAEAEABABABABABABAHAHAEAHADABALAKAPAQARAQAGALASAKAPARAPARAGALAOAEAEAHAEAEAA",
"AAAEAEAHAHAEABANARAPAQAPAQAGALASARAPAPAPARAGALAOADAHAEAHAHABABABABABABAEAEAHAHAEABANARAPAQAPAQAGALASARAPAPAPARAGALAOADAHAEAHAHAA",
"AEAHAHAEAHAEABALARAPAQAPAQAGALASARAPAPAKAPAGALACAEAHAHAEAEABABABABABABAHAHAEAHAEABALARAPAQAPAQAGALASARAPAPAKAPAGALACAEAHAHAEAEAE",
"AEAEAEAEAEADABANAPAPAPAPAPAGALASAPAPAPAKARAGALATAEAHAEAHAHABABABABABABAEAEAEAEADABANAPAPAPAPAPAGALASAPAPAPAKARAGALATAEAHAEAHAHAE",
"AEADAHADAHAGABALAPARAPARAPAGALASAPARAKARARAGALATADAEAEAEAEABABABABABABADAHADAHAGABALAPARAPARAPAGALASAPARAKARARAGALATADAEAEAEAEAE",
"AEAHAEAEADAGABANAPAPARAPAPAGALASAPAPARARARAGALAOAGAHADAHADABABABABABABAHAEAEADAGABANAPAPARAPAPAGALASAPAPARARARAGALAOAGAHADAHADAE",
"AEAEAEACADAHABANAPAQAPAKAPAGALASAPAQARAGARAGALAOAGADAEAEAHABABABABABABAEAEACADAHABANAPAQAPAKAPAGALASAPAQARAGARAGALAOAGADAEAEAHAE",
"AEAGAGADADAGABAMAPAQAPARARAGALASAPAQARARAPAGALAOAHADACAEAEABABABABABABAGAGADADAGABAMAPAQAPARARAGALASAPAQARARAPAGALAOAHADACAEAEAE",
"AEADADAIAJADABANAPARAKARAKAGALASAPARARARARAGALATAGAIAJAGAGABABABABABABADADAIAJADABANAPARAKARAKAGALASAPARARARARAGALATAGAIAJAGAGAE",
"AEAEAEAFAIAHABANARAPAPARAKAGALASARAPAQAPARAGALATADAFAIADADABABABABABABAEAEAFAIAHABANARAPAPARAKAGALASARAPAQAPARAGALATADAFAIADADAE",
"AEAHAEAEAHAHABANAPAPAPARAKAGALASAPAPAQARAPAGALACAHAEAHAEAEABABABABABABAHAEAEAHAHABANAPAPAPARAKAGALASAPAPAQARAPAGALACAHAEAHAEAEAE",
"AEAKAHAGAHAHABALAPAQARAPAKAGALASAPAQAPAKAPAGALACAHAHAEAEAHABABABABABABAKAHAGAHAHABALAPAQARAPAKAGALASAPAQAPAKAPAGALACAHAHAEAEAHAE",
"AEADAHADAHAHABALARAQARAPAKAGALASARAQARARARAGALAOAHAHAGAHAKABABABABABABADAHADAHAHABALARAQARAPAKAGALASARAQARARARAGALAOAHAHAGAHAKAE",
"ADAEAEAEAKAHABANARAPAKAPAKAGALASARAPAQARARAGALATAHAHADAHADABABABABABABAEAEAEAKAHABANARAPAKAPAKAGALASARAPAQARARAGALATAHAHADAHADAD",
"ADAEAEAHAHAEABANARAPARAPARAGALASARAPAQARAKAGALATAHAKAEAEAEABABABABABABAEAEAHAHAEABANARAPARAPARAGALASARAPAQARAKAGALATAHAKAEAEAEAD",
"ADAHAHAEAHAEABALAKAPAQARAKAGALASAKAPARAPARAGALATADADAOAEAEABABABABABABAHAHAEAHAEABALAKAPAQARAKAGALASAKAPARAPARAGALATADADAOAEAEAD",
"ADAEAEAEAEADABANARAPAQAKAKAGALASARAPARAPAKAGALATADAGAHAHAEABABABABABABAEAEAEAEADABANARAPAQAKAKAGALASARAPARAPAKAGALATADAGAHAHAEAD",
"ADADAHADAHAGABALAKAPAQAPARAGALASAKAPARAQARAGALAOACAHAGAGADABABABABABABADAHADAHAGABALAKAPAQAPARAGALASAKAPARAQARAGALAOACAHAGAGADAD",
"ADAHAEAEADAGABANAKAPAQAPAKAGALASAKAPAQAQAPAGALATAGAGAGADADABABABABABABAHAEAEADAGABANAKAPAQAPAKAGALASAKAPAQAQAPAGALATAGAGAGADADAD",
"ADAEAEACADAHABANARAQARARARAGALASARAKAKAQAQAGALATAKADAHADAKABABABABABABAEAEACADAHABANARAQARARARAGALASARAKAKAQAQAGALATAKADAHADAKAD",
"ADAGAGADADAGABAMAPAPARAKARAGALASARAKAPAPAPAGALATAGADACADADABABABABABABAGAGADADAGABAMAPAPARAKARAGALASARAKAPAPAPAGALATAGADACADADAD",
"ADADADAIAJADABANAQAPARAKARAGALASARAKARAPAQAGALATAHAIAJAHAEABABABABABABADADAIAJADABANAQAPARAKARAGALASARAKARAPAQAGALATAHAIAJAHAEAD",
"ADAEAEAFAIAHABANAPAKARARAKAGALASAPAKAKAPAQAGALATAGAFAIAEAKABABABABABABAEAEAFAIAHABANAPAKARARAKAGALASAPAKAKAPAQAGALATAGAFAIAEAKAD",
"ADAHAEAEAHAHABANAPAKAPAKAKAGALASAPAPARAPAQAGALACAEAHAHAHAHABABABABABABAHAEAEAHAHABANAPAKAPAKAKAGALASAPAPARAPAQAGALACAEAHAHAHAHAD",
"ADAKAHAGAHAHABALARARAPAKARAGALASARAPARARAPAGALACAHAHAHAHAHABABABABABABAKAHAGAHAHABALARARAPAKARAGALASARAPARARAPAGALACAHAHAHAHAHAD",
"ADADAHADAHAHABALAPARAPARAPAGALASAPARARAPAQAGALACAGAHADAHADABABABABABABADAHADAHAHABALAPARAPARAPAGALASAPARARAPAQAGALACAGAHADAHADAD",
"ADAKAEAEADAGABANAPAPAQAPAPAGALASAPAPARAPAQAGALAOAGADAEAEAHABABABABABABAKAEAEADAGABANAPAPAQAPAPAGALASAPAPARAPAQAGALAOAGADAEAEAHAD",
"ADADAEACADAGABANARAQAPAPAPAGALASAPARAPARAQAGALAOAHADACAEAEABABABABABABADAEACADAGABANARAQAPAPAPAGALASAPARAPARAQAGALAOAHADACAEAEAD",
"AUAKAGADAHACABAMARARAPAPAPAGALASAPAPAPAPAQAGALACAHAEAEAHAHABABABABABABAKAGADAHACABAMARARAPAPAPAGALASAPAPAPAPAQAGALACAHAEAEAHAHAU",
"AUAHAHAEAHADABALARARAPARAQAGALASAPAQARARAPAGALATAKAKAEAEADABABABABABABAHAHAEAHADABALARARAPARAQAGALASAPAQARARAPAGALATAKAKAEAEADAU",
"AUAHAHAHAEAGABALARAKARAPAQAGALASAPAPAKARAQAGALATADAGAFAEADABABABABABABAHAHAHAEAGABALARAKARAPAQAGALASAPAPAKARAQAGALATADAGAFAEADAU",
"AUAHAHAGAGAGABALAPARARAKAQAGALASAQAPAGAKAQAGALATADADADADADABABABABABABAHAHAGAGAGABALAPARARAKAQAGALASAQAPAGAKAQAGALATADADADADADAU",
"AUAEADAGAGAHABANARAKARAPAPAGALASAPAPAKAKAPAGALATAHAHAHAHAHABABABABABABAEADAGAGAHABANARAKARAPAPAGALASAPAPAKAKAPAGALATAHAHAHAHAHAU",
"AUAHAHAHAHAHABALAPARAPAPARAGALASARAPARAPAQAGALACAHAHAHAEAEABABABABABABAHAHAHAHAHABALAPARAPAPARAGALASARAPARAPAQAGALACAHAHAHAEAEAU",
"AUADADADADADABANAPAPARARAPAGALASAKAPAQARAQAGALATAHAHAHAHAHABABABABABABADADADADADABANAPAPARARAPAGALASAKAPAQARAQAGALATAHAHAHAHAHAU",
"AUADAGAIAJACABAMAKARAQAPAPAGALASARAPAQAKAQAGALAVADAIAJADADABABABABABABADAGAIAJACABAMAKARAQAPAPAGALASARAPAQAKAQAGALAVADAIAJADADAU",
"AUADADAFAIAGABANARARARARAQAGALASARAGAPAQAQAGALAOAHAFAIAHAEABABABABABABADADAFAIAGABANARARARARAQAGALASARAGAPAQAQAGALAOAHAFAIAHAEAU",
"AUAKADAEAHAGABANARAPARARAPAGALASARARAKAKAQAGALAOADAHAEAEAHABABABABABABAKADAEAHAGABANARAPARARAPAGALASARARAKAKAQAGALAOADAHAEAEAHAU",
"AUADADACADAGABANARAPAKARARAGALASAPARAKAPAPAGALAOAHAEAHAEADABABABABABABADADACADAGABANARAPAKARARAGALASAPARAKAPAPAGALAOAHAEAHAEADAU",
"AUAEAHAEAHAHABALARARAGARAKAGALASAPARAKARAPAGALATAGADACADADABABABABABABAEAHAEAHAHABALARARAGARAKAGALASAPARAKARAPAGALATAGADACADADAU",
"AUAKAEAEADAGABANARARAKARARAGALASAPAPAKAKAPAGALATAHAHAEAHAEABABABABABABAKAEAEADAGABANARARAKARARAGALASAPAPAKAKAPAGALATAHAHAEAHAEAU",
"AUADAEACADAGABANARARARARARAGALASAKAPAPARAPAGALATAGADAEAEAKABABABABABABADAEACADAGABANARARARARARAGALASAKAPAPARAPAGALATAGADAEAEAKAU",
"AUAKAGADAHACABAMARARARAPARAGALASAPARAPARARAGALACAEAHAHAHAHABABABABABABAKAGADAHACABAMARARARAPARAGALASAPARAPARARAGALACAEAHAHAHAHAU",
"AWAHAHAEAHADABALARARAGARAPAGALASAPAPARARAPAGALACAHAHAHAHAHABABABABABABAHAHAEAHADABALARARAGARAPAGALASAPAPARARAPAGALACAHAHAHAHAHAW",
"AWAHAHAHAEAGABALARARARARARAGALASAQAPAPARAPAGALACAGAHADAHADABABABABABABAHAHAHAEAGABALARARARARARAGALASAQAPAPARAPAGALACAGAHADAHADAW",
"AWAHAHAGAGAGABALAKAKARARAKAGALASAQAPARAPARAGALAOAGADAEAEAHABABABABABABAHAHAGAGAGABALAKAKARARAKAGALASAQAPARAPARAGALAOAGADAEAEAHAW",
"AWAEADAGAGAHABANAWAWAUACAUAWAUACAWAWAUACAUAUACAOAHADACAEAEABABABABABABAEADAGAGAHABANAWAWAUACAUAWAUACAWAWAUACAUAUACAOAHADACAEAEAW",
"AWADAEAFAGADABACAOAOAOAVATACATATATATATATAOATATACAHAEAEAHAHABABABABABABADAEAFAGADABACAOAOAOAVATACATATATATATATAOATATACAHAEAEAHAHAW",
"AWADADADADADAHAHAHAEADACAGAGAHAGAGAGACADADAHAHAHAHAHAHAHAHABABABABABABADADADADADAHAHAHAEADACAGAGAHAGAGAGACADADAHAHAHAHAHAHAHAHAW",
"AWAHAHAHAHAHADAHADADAKAGAHAGAGADACAGAGAHAGAGAGADAHAHAEAEAHABABABABABABAHAHAHAHAHADAHADADAKAGAHAGAGADACAGAGAHAGAGAGADAHAHAEAEAHAW",
"AWAEAEAIAJAHAGAGADAGAKAGAGAGAEAIAJADADAHADAGAGAGAHAIAJAHAHABABABABABABAEAEAIAJAHAGAGADAGAKAGAGAGAEAIAJADADAHADAGAGAGAHAIAJAHAHAW",
"AWAHAHAFAIAHAHAGADAFAEADAGAGAHAFAIACAEAEACACAGACADAFAIADADABABABABABABAHAHAFAIAHAHAGADAFAEADAGAGAHAFAIACAEAEACACAGACADAFAIADADAW",
"AWADADADADADAGADADAEAEAHADAHAHAHAGAEAEAHADADADAEADADAHAEAHABABABABABABADADADADADAGADADAEAEAHADAHAHAHAGAEAEAHADADADAEADADAHAEAHAW",
"AWAWAWAWAWAWAWAWAWAWAWAWAWAWAWAWAWAWAWAWAWAWAWAWAWAWAWAWAWABABABABABABAWAWAWAWAWAWAWAWAWAWAWAWAWAWAWAWAWAWAWAWAWAWAWAWAWAWAWAWAW",
};
