/* XPM */
static char *sprite_xpm[] = {
/* columns rows colors chars-per-pixel */
"64 64 29 2 ",
"AA c #202020",
"AB c #000000",
"AC c #404040",
"AD c #5C4020",
"AE c #403018",
"AF c #6C4824",
"AG c #543C1C",
"AH c #4C4C4C",
"AI c #483818",
"AJ c #302410",
"AK c #343434",
"AL c #5C5C5C",
"AM c #744C28",
"AN c #382C14",
"AO c #484848",
"AP c #1C1C1C",
"AQ c #2C2C2C",
"AR c #545454",
"AS c #383838",
"AT c #646464",
"AU c #282828",
"AV c #28200C",
"AW c #303030",
"AX c #707070",
"AY c #80502C",
"AZ c #7C7C7C",
"BA c #885830",
"BB c #905C34",
"BC c #A0643C",
/* pixels */
"AAAAAAAAAAAAAAAAAAAAAAAAAAAAAAAAAAAAAAAAAAAAAAAAAAAAAAAAAAABABABABABABAAAAAAAAAAAAAAAAAAAAAAAAAAAAAAAAAAAAAAAAAAAAAAAAAAAAAAAAAA",
"AAACADADADACACAEAEAFACAGAFAFAGAHAGADAIAEAEAJAJAKALAMAEALANABABABABABABADADADACACAEAEAFACAGAFAFAGAHAGADAIAEAEAJAJAKALAMAEALANAEAA",
"AAAEAOADADAEAEAPAQARAHARACASAGAPAQATAGAEAIAGAOAPAQAIAEANAJABABABABABABAOADADAEAEAPAQARAHARACASAGAPAQATAGAEAIAGAOAPAQAIAEANAJAEAA",
"AAACACAGAEACAEABAPARAQAGANAIAEABAPAFAIAOADADAFABAPADAGAGAUABABABABABABACAGAEACAEABAPARAQAGANAIAEABAPAFAIAOADADAFABAPADAGAGAUAJAA",
"AAAHAMAGAEAHAGADAGAMADAHASACAEAEAEAEACADANADAGAEANARAOACAVABABABABABABAMAGAEAHAGADAGAMADAHASACAEAEAEAEACADANADAGAEANARAOACAVAJAA",
"AAAVAIAGAGAVAOAPABABABABABAPAPAPABABABABABABABABABAJACAQAIABABABABABABAIAGAGAVAOAPABABABABABAPAPAPABABABABABABABABABAJACAQAIANAA",
"AAAIAPAJAIAIAOAQAPAPAPAPAVAAAAAPAPAPAPAPAPAPAPABABAVAHAIAJABABABABABABAPAJAIAIAOAQAPAPAPAPAVAAAAAPAPAPAPAPAPAPAPABABAVAHAIAJAEAA",
"AAAPAJAPAQAPAHACAWAQAQAWANAQAQAUAAAUAQAUAAAUAAAPABAEAPAQAJABABABABABABAJAPAQAPAHACAWAQAQAWANAQAQAUAAAUAQAUAAAUAAAPABAEAPAQAJAJAA",
"AAAJAJABAPAJARADASAWAWAKAWAWAWAWAWAWAQAUANAQAJAPABAJABAPAEABABABABABABAJABAPAJARADASAWAWAKAWAWAWAWAWAWAQAUANAQAJAPABAJABAPAEAHAA",
"AAAJAQACAJAJARAHASAKAKAKAQAQAKAKAWAWAQAQAQAQAUAPABACAEAJAGABABABABABABAQACAJAJARAHASAKAKAKAQAQAKAKAWAWAQAQAQAQAUAPABACAEAJAGADAA",
"AAAQAOAIAIAQALARACASASAWAQAWASAWANAWAWAKAWAQANAPABACACAGAIABABABABABABAOAIAIAQALARACASASAWAQAWASAWANAWAWAKAWAQANAPABACACAGAIAEAA",
"AAAOAEAIAEAOALALAHACASAWAWAKAKANANAEAKAWAQANANAPAPAEADAJAJABABABABABABAEAIAEAOALALAHACASAWAWAKAKANANAEAKAWAQANANAPAPAEADAJAJADAA",
"AUAEAVAIAEAEATALAOASAKAKAKAWANANAEAEAEAEAEAQAUAPABAEAGANARABABABABABABAVAIAEAEATALAOASAKAKAKAWANANAEAEAEAEAEAQAUAPABAEAGANARARAU",
"AUAVADAGAJAVAXARASAWAWAKAWAUAUAQAWAEAEAEAEAEAQAPABAGADAEAOABABABABABABADAGAJAVAXARASAWAWAKAWAUAUAQAWAEAEAEAEAEAQAPABAGADAEAOAEAU",
"AUADAEAEARADAXAHAKAWAWAWAQAUAUAWAWAEAEAKAWAWAWAAAPASAGAIAGABABABABABABAEAEARADAXAHAKAWAWAWAQAUAUAWAWAEAEAKAWAWAWAAAPASAGAIAGAGAU",
"AUAEAIAPAQAEATAOAKAQAWAWAQANANAWAWAEASASAKAKAKAAABANAPAQAEABABABABABABAIAPAQAEATAOAKAQAWAWAQANANAWAWAEASASAKAKAKAAABANAPAQAEADAU",
"AUAIAQABAPAIALAHAKAQAWAWANANAWAWAWAKASASAKAWAQAPABAOABAPAGABABABABABABAQABAPAIALAHAKAQAWAWANANAWAWAWAKASASAKAWAQAPABAOABAPAGACAU",
"AUAQAEANACAQALAHASAWAWAEAEAWAWAWAWAWAKAKAWAQAUAPABASAOASADABABABABABABAEANACAQALAHASAWAWAEAEAWAWAWAWAWAKAKAWAQAUAPABASAOASADASAU",
"AUAEAOACASAEARAOASAKAWAQAWAWAQAEAEAWAKAWAQAQAUAPABANAIAEAIABABABABABABAOACASAEARAOASAKAWAQAWAWAQAEAEAWAKAWAQAQAUAPABANAIAEAIAEAU",
"AUAOAKAGAEAOARAHASAWAQAQAWAQAQAWAWAKAKAWAQAQAUAPABAVANAGAGABABABABABABAKAGAEAOARAHASAWAQAQAWAQAQAWAWAKAKAWAQAQAUAPABAVANAGAGAEAU",
"AUAKAQAGAEAKATARASAWAWAWAWAQAWAKAKAKAKAWAWAQAAABABAGAIAHASABABABABABABAQAGAEAKATARASAWAWAWAWAQAWAKAKAKAKAWAWAQAAABABAGAIAHASAEAU",
"AUAQAIAWANAQALAOAEAQAWAKAWAQAWAWAWAWAWAWAWAUAVABABADANAJAGABABABABABABAIAWANAQALAOAEAQAWAKAWAQAWAWAWAWAWAWAWAUAVABABADANAJAGANAU",
"AUAIAEAEANAIALADAEAWAKAKAWAQAQAWAQAQAQAQAQAUAPABABAJAEAIAGABABABABABABAEAEANAIALADAEAWAKAKAWAQAQAWAQAQAQAQAQAUAPABABAJAEAIAGAIAU",
"AQAEAIAPAQAEATAHASAKAKAKAWAQAUAUAUAQAQAQAUAAAPABABAHAPAQAOABABABABABABAIAPAQAEATAHASAKAKAKAWAQAUAUAUAQAQAQAUAAAPABABAHAPAQAOADAQ",
"AQAIADABAPAIALARACASAKAWAWAUAUAUAUAQANAUAUAAAPAPABAIABAPADABABABABABABADABAPAIALARACASAKAWAWAUAUAUAUAQANAUAUAAAPAPABAIABAPADAEAQ",
"AQADANAGAIADALALACAKAWAWAWAUAUAUAQAQAQAUAUAAAPABABAIAYANAEABABABABABABANAGAIADALALACAKAWAWAWAUAUAUAQAQAQAUAUAAAPABABAIAYANAEAGAQ",
"AQANADAFAGANATARASAKAWAWAWAUAUAUAQAQAUAUAUAAAVABABAIAIAEACABABABABABABADAFAGANATARASAKAWAWAWAUAUAUAQAQAUAUAUAAAVABABAIAIAEACAWAQ",
"AQADAIATAGADATAOAKAWAWAWAWAQAUAQAQAUAUAJANAJAJAVABADAGADANABABABABABABAIATAGADATAOAKAWAWAWAWAQAUAQAQAUAUAJANAJAJAVABADAGADANAEAQ",
"AQAIAFAFASAIALAOASAWAWAWAWAQAQAQAUAUAUAUANANAJAVABAIADAFAFABABABABABABAFAFASAIALAOASAWAWAWAWAQAQAQAUAUAUAUANANAJAVABAIADAFAFAEAQ",
"AQAFASAOASAFAXARASAWAWAWAQAUAUAQAUAUAUAUAUAJAAAPABADADARAEABABABABABABASAOASAFAXARASAWAWAWAQAUAUAQAUAUAUAUAUAJAAAPABADADARAEAEAQ",
"AQASAFADAIASAZALASAWAWAWAQANAUAUAUAUAUAUAJAJAAAPABAIADARAIABABABABABABAFADAIASAZALASAWAWAWAQANAUAUAUAUAUAUAJAJAAAPABAIADARAIANAQ",
"AQAFALAPAQAFAXARASAWAQAWAQAUAUAUANAUAQAUAAAAAAAPABAFAPAQAIABABABABABABALAPAQAFAXARASAWAQAWAQAUAUAUANAUAQAUAAAAAAAPABAFAPAQAIAIAQ",
"AQALADABAPALATAHASAWAWAQAUAUAUANANAUAQAUAJAJAJAPABAEABAPANABABABABABABADABAPALATAHASAWAWAQAUAUAUANANAUAQAUAJAJAJAPABAEABAPANAEAQ",
"AQADAEAEAGADARAOASAWAQAQAQAUANANANAQANANAJANAJAPABAEAIAEAJABABABABABABAEAEAGADARAOASAWAQAQAQAUANANANAQANANAJANAJAPABAEAIAEAJAJAQ",
"AQAEAGAEAIAEALARACAKAQAQAQAUANANANAQAQANANAUAAAPABACAGAIAIABABABABABABAGAEAIAEALARACAKAQAQAQAUANANANAQAQANANAUAAAPABACAGAIAIARAQ",
"AQAGARAJASAGATARACAKAWAQAQAUAUAQAQAQAUAUANAUAJAVABAIAKAOAGABABABABABABARAJASAGATARACAKAWAQAQAUAUAQAQAQAUAUANAUAJAVABAIAKAOAGAIAQ",
"AQARAGAJACARATAHASAWAWAQAQAUAQAQAQANANAJAUANAJAVABAHAEAGAEABABABABABABAGAJACARATAHASAWAWAQAQAUAQAQAQANANAJAUANAJAVABAHAEAGAEAIAQ",
"AQAGAHAGAGAGATARASAWAWAWAEAQAQAQANANANAJAJAJAVAPABAOAGAFAIABABABABABABAHAGAGAGATARASAWAWAWAEAQAQAQANANANAJAJAJAVAPABAOAGAFAIAEAQ",
"AWAHASAJAIAHAXALACAWAWAEAKAEANAQANANANANANAJAPABABAHAGAGADABABABABABABASAJAIAHAXALACAWAWAEAKAEANAQANANANANANAJAPABABAHAGAGADAIAW",
"AWASAGAPAQASATALACAKAKAKAKAEAEAEANANANANAEANAAAPABAGAPAQAIABABABABABABAGAPAQASATALACAKAKAKAKAEAEAEANANANANAEANAAAPABAGAPAQAIANAW",
"AWAGAFABAPAGALARACAKAKAWAWAKAWAEANANANAEAQAQAJAPABAGABAPADABABABABABABAFABAPAGALARACAKAKAWAWAKAWAEANANANAEAQAQAJAPABAGABAPADASAW",
"AWAFAGAGAIAFALARACAKAKAKAKAKAWANANANANANAQANAJAPABAEAMAEAEABABABABABABAGAGAIAFALARACAKAKAKAKAKAWANANANANANAQANAJAPABAEAMAEAEAIAW",
"AWAGAGAEARAGATALAOASASASAKAWANANANANANAEAEANAJAPABACAOAIAIABABABABABABAGAEARAGATALAOASASASAKAWANANANANANAEAEANAJAPABACAOAIAIAKAW",
"AWAGAGAGADAGATALAOACACASAKAEANANAJAJANAEAQAEAUAPABAGACAEAGABABABABABABAGAGADAGATALAOACACASAKAEANANAJAJANAEAQAEAUAPABAGACAEAGAGAW",
"AWAGAGADAKAGALARACACACASAKAEAEANAJAUANAQAQAQAQAPABAOAUAEAGABABABABABABAGADAKAGALARACACACASAKAEAEANAJAUANAQAQAQAQAPABAOAUAEAGAEAW",
"AWAGAGALAHAGALARACASACACASAKAKAEANANAQAWAQAQAUAPABAOAEASAEABABABABABABAGALAHAGALARACASACACASAKAKAEANANAQAWAQAQAUAPABAOAEASAEAIAW",
"AWAGAGAOAGAGATARACASACACASASASAKAEANAQAQANANAJAPAPAHAFAEAFABABABABABABAGAOAGAGATARACASACACASASASAKAEANAQAQANANAJAPAPAHAFAEAFAGAW",
"AWAGASAPAQAGATALACASASASASASASAEANANANAUAJANAUAVAPAFAPAQAIABABABABABABASAPAQAGATALACASASASASASASAEANANANAUAJANAUAVAPAFAPAQAIAKAW",
"AWASAHABAPASAXARACASAKAKASASASAEANANANAJANAEAEAJAPASABAPAIABABABABABABAHABAPASAXARACASAKAKASASASAEANANANAJANAEAEAJAPASABAPAIAEAW",
"AWAHAKACAJAHATAHASAKAEAIAIAIAEAEAEAEANANANAEAEAVABAJAOASAOABABABABABABAKACAJAHATAHASAKAEAIAIAIAEAEAEAEANANANAEAEAVABAJAOASAOAGAW",
"AWAKACAIAIAKATAOAIAIAIAGAGAEAEAEAEAEANANAEAEAEAPABAEAIAEACABABABABABABACAIAIAKATAOAIAIAIAGAGAEAEAEAEAEANANAEAEAEAPABAEAIAEACAGAW",
"AWACAOAIAEACALAOAIAIAIAIAIAEAEAEAEAEAEAWAWAEAEAVABACANAGAEABABABABABABAOAIAEACALAOAIAIAIAIAIAEAEAEAEAEAEAWAWAEAEAVABACANAGAEAGAW",
"AWAOAOAIAEAOATAHASAKAKAIAIAIAEAEAEAIAIAIAKAKAEAVABADAIAHACABABABABABABAOAIAEAOATAHASAKAKAIAIAIAEAEAEAIAIAIAKAKAEAVABADAIAHACADAW",
"AKAOARAGAJAOAXARACASASAEAIAIAIAEAEAIAGAIAIAKAEAVAVAEANAJAWABABABABABABARAGAJAOAXARACASASAEAIAIAIAEAEAIAGAIAIAKAEAVAVAEANAJAWADAK",
"AKARACAEARARAXALACASASAKAEAIAIAEAEAIAIAGAIAKAEAVABAIAEAZADABABABABABABACAEARARAXALACASASAKAEAIAIAEAEAIAIAGAIAKAEAVABAIAEAZADASAK",
"AKACAGAPAQACAXALACAKAKAWAKASAEAEAEAIAGAGASAWAQAVABAEAPAQADABABABABABABAGAPAQACAXALACAKAKAWAKASAEAEAEAIAGAGASAWAQAVABAEAPAQADAOAK",
"AKAGADABAPAGAXARAGAGAIASACACADAGAGADADACASASAKAAABAEABAPADABABABABABABADABAPAGAXARAGAGAIASACACADAGAGADADACASASAKAAABAEABAPADAGAK",
"AKADAIAEANADATARAFAFAFAMALALAYAMAMAYAYARARARACANAPASACAQACABABABABABABAIAEANADATARAFAFAFAMALALAYAMAMAYAYARARARACANAPASACAQACAGAK",
"AKAIAEAIAEAIATALALBABBBBAXAXBCBBBBAXAXAXAXAXARAEAJACAHAIAOABABABABABABAEAIAEAIATALALBABBBBAXAXBCBBBBAXAXAXAXAXARAEAJACAHAIAOAIAK",
"AKAIASARARAIAIAEAHASAGACAEAIAEANAEAEAEANAIAEAGADAGADAGAIAEABABABABABABASARARAIAIAEAHASAGACAEAIAEANAEAEAEANAIAEAGADAGADAGAIAEAIAK",
"AKAIAIANAGAIAIAPAQAHADAMASAOAFAPAQAIAGAOAGADADAPAQADADAGAOABABABABABABAIANAGAIAIAPAQAHADAMASAOAFAPAQAIAGAOAGADADAPAQADADAGAOACAK",
"AKAEADAEADAEAWABAPADASAGAGADAGABAPAEAGAHAIADADABAPAOAGASAEABABABABABABADAEADAEAWABAPADASAGAGADAGABAPAEAGAHAIADADABAPAOAGASAEACAK",
"AKAJASAIAJAJAGADAGAGASAFAAAIAIAJAVAIAIAIAGAEAEAGADACAOACANABABABABABABASAIAJAJAGADAGAGASAFAAAIAIAJAVAIAIAIAGAEAEAGADACAOACANADAK",
"AKAKAKAKAKAKAKAKAKAKAKAKAKAKAKAKAKAKAKAKAKAKAKAKAKAKAKAKAKABABABABABABAKAKAKAKAKAKAKAKAKAKAKAKAKAKAKAKAKAKAKAKAKAKAKAKAKAKAKAKAK",
};
