/* XPM */
static char *sprite_xpm[] = {
/* columns rows colors chars-per-pixel */
"64 64 16 2 ",
"AA c #202020",
"AB c #000000",
"AC c #7C7C7C",
"AD c #5C5C5C",
"AE c #343434",
"AF c #303030",
"AG c #383838",
"AH c #404040",
"AI c #484848",
"AJ c #545454",
"AK c #8C8C8C",
"AL c #646464",
"AM c #2C2C2C",
"AN c #4C4C4C",
"AO c #1C1C1C",
"AP c #707070",
/* pixels */
"AAAAAAAAAAAAAAAAAAAAAAAAAAAAAAAAAAAAAAAAAAAAAAAAAAAAAAAAAAABABABABABABAAAAAAAAAAAAAAAAAAAAAAAAAAAAAAAAAAAAAAAAAAAAAAAAAAAAAAAAAA",
"ACADAEAFAEAGAEAEAEAEAGAHAIAHAGAHAHAIAIAIAHAHAHAHAIAIAEAGAGABABABABABABAGAGAGAEAEAEAEAGAHAIAHAGAHAHAIAIAIAHAHAHAHAIAIAGAEAGAGAEAF",
"ACAJAEAEAEAGAGAGAEAEAGAIAIAHAHAGAGAGAHAHAHAHAHAGAGAGAEAGAGABABABABABABAGAGAGAGAGAEAEAGAIAIAHAHAGAGAGAHAHAHAHAHAGAGAGAHAEAGAGAEAF",
"ACAJAEAEAEAGAGAGAGAGAHAIAIAIAIAHAGAGAGAHAHAHAHAHAHAGAGAGAGABABABABABABAGAGAGAGAGAGAGAHAIAIAIAIAHAGAGAGAHAHAHAHAHAHAGAIAGAGAGAEAF",
"ACADAGAGAEAEAGAGAHAIAIAHAHAHAIAHAGAGAGAGAGAGAHAIAIAHAGAGAGABABABABABABAGAEAEAGAGAHAIAIAHAHAHAIAHAGAGAGAGAGAGAHAIAIAHAIAGAGAGAEAF",
"AKALAHAGAGAEAEAEAGAGAGAEAEAEAEAGAEAEAEAEAEAEAEAGAHAGAGAGAEABABABABABABAEAEAFAGAEAEAGAGAGAEAEAEAGAEAEAEAEAEAEAEAEAGAHAHAGAGAEAEAF",
"AKALAGAGAGAGAEAMAMAMAMAMAMAMAMAMAMAMAMAMAMAMAMAMANAGAEAEAEABABABABABABAEAFAFAGAEAMAMAMAMAMAMAMAMAMAMAMAMAMAMAMAMAMANAHAEAEAEAEAF",
"AKALAGAGAGAGAEAMAOAOAOAOAOAOAOAOAOAOAOAOAOAOAOAJAJAHAEAEAEABABABABABABAFAFAGAGAEAMAOAOAOAOAOAOAOAOAOAOAOAOAOAOAOAJAJAGAEAEAEAEAF",
"AKADAGAGAGAGAEAMAOAFAFAFAEAEAEAFAFAFAFAFAEAGADAPAJAEAEAEAGABABABABABABAGAGAGAGAEAMAOAEAEAFAFAEAGAGAHAHAIAIANAIADAPAJAEAEAEAGAEAF",
"AKADAGAGAGAGAEAMAOAFAFAEAGAGAEAEAEAFAEAEAEAGADACADAGAEAGAGABABABABABABAGAGAGAGAEAMAOAEAEAFAFAEAGAGAHAHAHAIAIAIADACADAGAEAGAGAEAF",
"AKADAHAHAGAGAEAMAOAFAFAEAGAHAGAEAEAEAEAEAEAGADAPADAGAEAGAGABABABABABABAHAHAGAGAEAMAOAEAFAFAFAFAEAGAGAGAHAHAHAHADAPADAGAEAGAGAFAF",
"AKADAHAHAGAGAEAMAOAFAFAEAGAGAGAEAEAEAEAEAEAGADACADAGAEAGAGABABABABABABAHAHAGAGAEAMAOAEAEAFAFAFAEAGAGAGAGAHAHAHADACADAGAEAGAGAFAF",
"AKADAHAGAGAGAEAMAOAFAFAEAGAGAEAEAEAEAEAEAEAGADACADAGAGAGAGABABABABABABAHAGAGAGAEAMAOAEAEAFAFAFAGAGAHAGAGAGAGAHADACADAGAGAGAGAEAF",
"AKADAHAGAEAGAEAMAOAFAFAEAGAGAEAEAEAEAEAEAEAGADACADAGAGAGAGABABABABABABAHAGAEAGAEAMAOAEAEAFAFAFAGAGAHAHAHAGAGAHADACADAGAGAGAGAEAF",
"AKALAHAGAEAEAEAMAOAFAFAEAGAGAEAEAFAFAEAEAEAGADACAJAEAEAGAGABABABABABABAHAGAEAEAEAMAOAEAEAFAFAFAGAGAGAHAHAGAGAHADACAJAEAEAGAGAEAF",
"AKALAHAGAEAEAEAMAOAFAFAEAGAGAEAEAFAFAEAEAEAEADAPAJAEAFAEAGABABABABABABAHAGAEAEAEAMAOAEAEAFAFAFAGAGAGAGAGAGAGAHADAPAJAEAFAEAGAEAF",
"AKALAIAGAGAHAGAMAOAFAFAEAGAGAEAEAFAFAFAEAGAGADAPAJAFAFAEAGABABABABABABAIAGAGAHAGAMAOAGAEAFAFAEAEAEAGAGAGAGAHAHADAPAJAFAFAEAGAEAF",
"AKALAIAGAHAIAHAMAOAFAFAFAGAEAEAEAEAFAFAEAEAGADAPAJAEAEAEAGABABABABABABAIAGAHAIAHAMAOAGAEAFAFAEAGAEAGAGAGAHAHAHADAPAJAEAEAEAGAEAF",
"AKALAHAGAHAIAGAMAOAFAFAFAEAEAEAEAEAFAFAFAEAEADAPAJAEAEAEAEABABABABABABAHAGAHAIAGAMAOAGAEAFAFAGAGAGAGAGAHAHAHAHADAPAJAEAEAEAEAFAF",
"AKALAHAHAHAHAEAMAOAFAFAFAEAEAEAEAEAFAFAFAFAEADAPADAGAEAEAEABABABABABABAHAHAHAHAEAMAOAGAEAFAFAGAHAGAGAHAGAGAHAHADAPADAGAEAEAEAFAF",
"AKALAHAHAHAGAEAMAOAFAFAFAEAEAEAEAEAFAEAEAEAGADACALAHAEAEAEABABABABABABAHAHAHAGAEAMAOAHAGAEAFAEAGAHAHAHAGAGAHAIADACALAHAEAEAEAEAF",
"AKADAHAHAHAGAEAMAOAFAFAEAGAGAEAEAEAFAEAEAEAHALACALAGAEAEAGABABABABABABAHAHAHAGAEAMAOAHAGAEAFAEAGAHAIAIAGAGAHAIALACALAGAEAEAGAEAF",
"AKALAIAHAHAGAEAMAOAFAFAFAGAGAEAEAEAFAEAEAGAHALACADAGAEAEAGABABABABABABAIAHAHAGAEAMAOAIAHAEAEAEAGAHAIAIAHAHAIANALACADAGAEAEAGAEAF",
"AKALAIAHAGAGAEAMAOAFAFAFAEAEAEAEAEAFAEAEAGAHALACADAGAEAGAGABABABABABABAIAHAGAGAEAMAOAHAGAEAEAGAHAIAIAIAIAIAIANALACADAGAEAGAGAEAF",
"AKALAIAGAGAGAEAMAOAFAFAEAGAGAGAGAEAFAEAEAGAHALACAJAGAGAGAGABABABABABABAIAGAGAGAEAMAOAHAGAEAEAGAHAIAIAIANANANANALACAJAGAGAGAGAEAF",
"AKALAHAGAGAGAEAMAOAFAFAEAGAGAGAEAEAEAEAEAGAHALACADAHAHAGAGABABABABABABAHAGAGAGAEAMAOAHAGAEAEAGAHAIAIANANAJAJANALACADAHAHAGAGAEAF",
"ACADAHAGAHAHAGAMAOAFAFAEAGAGAGAEAEAEAEAEAGAIAPAKADAHAGAGAGABABABABABABAHAGAHAHAGAMAOAHAHAGAEAEAGAIANAJAJAJAJAJAPAKADAHAGAGAGAEAF",
"APADAGAHAIAIAEAMAOAFAFAEAEAEAEAEAFAFAEAEAGAHAPAKADAGAEAGAGABABABABABABAGAHAIAIAEAMAOAHAGAGAEAEAGAIANAJAJAJAJAJAPAKADAGAEAGAGAEAF",
"ACALAHAHAIAHAEAMAOAFAFAFAEAEAEAEAFAFAEAGAGAGAPACADAGAEAEAGABABABABABABAHAHAIAHAEAMAOAGAGAGAEAGAGAIANANAJANANAJAPACADAGAEAEAGAEAF",
"ACALAIAIAIAHAEAMAOAFAFAFAFAEAEAEAFAFAEAGAEAGAPAKALAHAEAEAEABABABABABABAIAIAIAHAEAMAOAGAGAGAEAGAGAIANANANANANAJAPAKALAHAEAEAEAFAF",
"ACADAHAIAIAHAEAMAOAFAFAFAFAFAEAFAFAFAEAEAEAEAPAKALAIAGAEAEABABABABABABAHAIAIAHAEAMAOAGAGAGAEAGAHAHAIANANANANAJAPAKALAIAGAEAEAFAF",
"ACADAGAGAHAIAGAMAOAFAFAFAFAFAFAFAFAFAFAEAFAEAPAKALAIAGAGAGABABABABABABAGAGAHAIAGAMAOAGAGAGAEAEAGAHAIANANANANAJAPAKALAIAGAGAGAEAF",
"ACAJAEAEAGAIAGAMAOAFAFAFAFAFAEAEAFAFAFAFAEAEAPAKALAIAEAGAHABABABABABABAEAEAGAIAGAMAOAGAGAGAEAEAGAHAIANANANANAJAPAKALAIAEAGAHAGAF",
"ACAJAEAEAGAHAGAMAOAFAFAFAFAFAFAEAFAFAFAEAEAGALAKALAHAEAGAHABABABABABABAEAEAGAHAGAMAOAGAGAGAEAEAGAHAIANANAJAJAJALAKALAHAEAGAHAGAF",
"APAJAEAGAGAGAEAMAOAFAFAFAFAFAFAEAFAFAFAEAGAGALACADAHAGAGAGABABABABABABAEAGAGAGAEAMAOAGAGAGAEAEAGAHAIAIANAJAJAJALACADAHAGAGAGAEAF",
"APANAEAGAGAGAEAMAOAFAFAFAFAFAFAFAFAFAFAEAGAGALACADAHAGAGAGABABABABABABAEAGAGAGAEAMAOAHAHAGAEAEAGAHAIAIANANANAJALACADAHAGAGAGAEAF",
"APAJAGAGAGAEAFAMAOAFAFAFAFAFAFAFAFAFAFAEAGAGALAKADAGAGAHAHABABABABABABAGAGAGAEAFAMAOAHAHAGAEAEAGAHAIAIANANANANALAKADAGAGAHAHAEAF",
"ACALAGAGAEAEAFAMAOAFAFAFAFAFAFAFAFAFAFAEAEAGALAKALAHAGAHAGABABABABABABAGAGAEAEAFAMAOAHAGAEAEAEAGAHAIAIANANANANALAKALAHAGAHAGAEAF",
"ACALAHAEAEAEAFAMAOAFAFAFAFAFAFAFAFAFAFAEAEAGAPAKALAIAGAGAEABABABABABABAHAEAEAEAFAMAOAGAGAEAFAEAGAHAIAIAIANANANAPAKALAIAGAGAEAEAF",
"APADAHAEAEAEAFAMAOAFAFAFAFAFAFAFAFAFAFAEAEAGALAKALAIAGAEAEABABABABABABAHAEAEAEAFAMAOAEAGAEAFAEAGAGAHAIAIAIAIANALAKALAIAGAEAEAEAF",
"APAJAGAEAEAEAFAMAOAFAFAFAEAFAFAFAFAFAEAGAGAHALACADAHAGAGAGABABABABABABAGAEAEAEAFAMAOAEAEAEAFAEAGAGAHAIANAIAIAIALACADAHAGAGAGAEAF",
"APAJAGAEAEAEAFAMAOAFAFAFAEAEAEAEAFAFAEAGAHAIALACADAGAGAGAGABABABABABABAGAEAEAEAFAMAOAEAEAFAFAEAGAGAGAIAIAIAIAIALACADAGAGAGAGAEAF",
"APAJAGAGAEAEAFAMAOAFAFAFAGAGAGAEAFAFAEAGAHAIADAPAJAGAGAGAGABABABABABABAGAGAEAEAFAMAOAGAEAFAFAFAEAEAGAHAIAIAIAIADAPAJAGAGAGAGAEAF",
"APAJAGAEAEAEAFAMAOAFAFAFAEAGAEAEAFAFAEAGAHAHALACADAGAGAGAEABABABABABABAGAEAEAEAFAMAOAGAEAFAFAFAEAEAGAHAHAHAHAIALACADAGAGAGAEAEAF",
"APANAEAEAEAEAEAMAOAFAFAFAEAEAEAEAEAEAEAGAHAHALACADAGAGAGAEABABABABABABAEAEAEAEAEAMAOAGAEAEAFAFAEAEAGAHAHAHAHAIALACADAGAGAGAEAEAF",
"APANAEAEAEAEAFAMAOAFAFAFAEAGAGAEAFAEAEAGAHAHALACADAGAHAHAGABABABABABABAEAEAEAEAFAMAOAGAEAEAFAEAEAEAGAHAIAHAHAIALACADAGAHAHAGAEAF",
"ALANAEAEAEAEAFAMAOAFAFAFAEAGAGAEAFAFAEAGAHAHALACAJAEAGAGAGABABABABABABAEAEAEAEAFAMAOAGAGAEAFAEAGAGAEAGAIAHAHAHALACAJAEAGAGAGAEAF",
"ALAJAEAEAEAEAFAMAOAFAFAFAEAEAEAEAFAFAEAGAGAHADACAJAEAEAGAHABABABABABABAEAEAEAEAFAMAOAGAGAEAFAEAHAGAGAGAHAHAHAHADACAJAEAEAGAHAGAF",
"ALAJAGAEAGAEAFAMAOAFAFAFAEAEAEAEAEAFAFAGAGAHADACAJAFAFAEAGABABABABABABAGAEAGAEAFAMAOAGAGAEAFAEAGAHAGAGAHAHAHAHADACAJAFAFAEAGAGAF",
"ALAJAEAEAEAGAFAMAOAFAFAFAFAEAEAEAEAFAFAEAGAHADACAJAEAFAEAGABABABABABABAEAEAEAGAFAMAOAGAGAEAFAFAGAHAGAGAHAIAIAHADACAJAEAFAEAGAEAF",
"ALAJAEAFAEAGAFAMAOAFAFAFAFAFAFAEAFAFAFAEAEAGADACAJAEAEAEAGABABABABABABAEAFAEAGAFAMAOAGAGAEAFAEAGAIAHAGAHAIAIAHADACAJAEAEAEAGAEAF",
"ALANAEAFAEAEAFAMAOAFAFAFAFAFAEAEAFAFAFAFAEAHADACADAEAEAEAGABABABABABABAEAFAEAEAFAMAOAGAGAEAFAEAHAIAHAGAHAHAHAHADACADAEAEAEAGAEAF",
"ALANAEAFAEAEAFAMAOAFAFAFAFAEAEAEAFAFAFAEAGAHADACALAGAEAEAEABABABABABABAEAFAEAEAFAMAOAHAGAEAFAEAGAIAIAHAHAHAHAHADACALAGAEAEAEAEAF",
"ALANAEAFAEAEAFAMAOAFAFAFAEAEAEAEAFAFAEAGAHAIADACALAHAEAEAEABABABABABABAEAFAEAEAFAMAOAIAGAEAFAEAGAHAIAHAHAHAHAHADACALAHAEAEAEAEAF",
"ALANAEAFAEAEAFAMAOAFAFAFAEAEAEAEAFAFAEAEAGAHADACADAGAEAEAEABABABABABABAEAFAEAEAFAMAOAIAGAEAEAEAGAHAIAIAIAIAIAIADACADAGAEAEAEAFAF",
"ALAJAEAFAEAEAFAMAOAFAFAFAEAEAEAEAFAFAEAEAEAGADAPADAGAGAEAEABABABABABABAEAFAEAEAFAMAOAIAHAGAEAGAHAIAIAIANANAIAIADAPADAGAGAEAEAFAF",
"ALAJAEAFAEAEAFAMANADALALALALADALALALAPALALALALACAJAGAGAEAEABABABABABABAEAFAFAEAFAMANADALALALALADALALALAPALALALALACAJAGAGAEAEAEAF",
"ALANAEAEAEAEAFADACACACACACACAPACACAKAKAKAKACACACAJAHAGAEAEABABABABABABAEAFAEAGAFADACACACACACACAPACACAKAKAKAKACACACAJAHAGAEAEAEAF",
"ALANAEAEAEAGANAJAJAJAJADADADAJADADALALALADADAJALADAHAGAEAEABABABABABABAEAEAEAHANAJAJAJAJADADADAJADADALALALADADAJALADAHAGAEAEAFAF",
"ALANAEAEAGAGAEAFAFAEAEAGAGAGAGAGAHAIAIAHAGAHAHAHAIAGAEAEAEABABABABABABAEAEAGAHAIAHAFAEAEAGAGAGAGAGAHAIAIAHAGAHAHAHAIAGAEAEAEAFAF",
"ALANAEAEAGAGAEAFAFAEAGAHAGAGAGAGAGAGAGAGAGAGAGAEAEAGAEAEAEABABABABABABAEAEAGAHAIAIAFAEAGAHAGAGAGAGAGAGAGAGAGAGAGAEAEAGAEAEAEAFAF",
"ALAJAEAEAGAGAEAFAEAGAGAHAGAGAGAGAGAEAGAHAHAGAGAGAGAGAEAEAEABABABABABABAGAEAGAHAIAIAEAGAGAHAGAGAGAGAGAEAGAHAHAGAGAGAGAGAEAEAEAFAF",
"ALANAEAEAGAGAEAFAGAHAGAGAEAEAGAGAGAEAEAGAHAGAGAHAHAGAEAEAEABABABABABABAGAEAEAHAHAIAGAHAGAGAEAEAGAGAGAEAEAGAHAGAGAHAHAGAEAEAEAFAF",
"AEAEAEAEAEAEAEAEAEAEAEAEAEAEAEAEAEAEAEAEAEAEAEAEAEAEAEAEAEABABABABABABAEAEAEAEAEAEAEAEAEAEAEAEAEAEAEAEAEAEAEAEAEAEAEAEAEAEAEAEAE",
};
